<?xml version="1.0" encoding="utf-8"?>
<!-- Generator: Adobe Illustrator 24.2.1, SVG Export Plug-In . SVG Version: 6.00 Build 0)  -->
<svg version="1.1"
	 id="svg3743" inkscape:version="0.48.2 r9819" sodipodi:docname="New document 3" xmlns:cc="http://creativecommons.org/ns#" xmlns:dc="http://purl.org/dc/elements/1.1/" xmlns:inkscape="http://www.inkscape.org/namespaces/inkscape" xmlns:rdf="http://www.w3.org/1999/02/22-rdf-syntax-ns#" xmlns:sodipodi="http://sodipodi.sourceforge.net/DTD/sodipodi-0.dtd" xmlns:svg="http://www.w3.org/2000/svg"
	 xmlns="http://www.w3.org/2000/svg" xmlns:xlink="http://www.w3.org/1999/xlink" x="0px" y="0px" viewBox="0 0 1000 232.9"
	 style="enable-background:new 0 0 1000 232.9;" xml:space="preserve">
<style type="text/css">
	.st0{fill:#FFFFFF;}
	.st1{fill-rule:evenodd;clip-rule:evenodd;fill:#FFFFFF;}
</style>
<sodipodi:namedview  bordercolor="#666666" borderopacity="1.0" fit-margin-bottom="0.5" fit-margin-left="0.5" fit-margin-right="0.5" fit-margin-top="0.5" id="base" inkscape:current-layer="layer1" inkscape:cx="874.95827" inkscape:cy="28.391303" inkscape:document-units="px" inkscape:pageopacity="0.0" inkscape:pageshadow="2" inkscape:window-height="1028" inkscape:window-maximized="1" inkscape:window-width="1920" inkscape:window-x="-8" inkscape:window-y="-8" inkscape:zoom="0.49497475" pagecolor="#ffffff" showgrid="false">
	</sodipodi:namedview>
<g id="layer1" transform="translate(1259.5404,-281.52527)" inkscape:groupmode="layer" inkscape:label="Layer 1">
	<path id="path3223" inkscape:connector-curvature="0" sodipodi:nodetypes="ccccccc" class="st0" d="M-272.8,284.7
		c7.7,1.3,12.8,6,12.8,14c0,2.7-1.1,6.4-1.8,9.6c-5.1,22.6-25.2,102.6-33.6,156l-7.8-7.8l24.7-164.2L-272.8,284.7z"/>
	<path id="path3201" inkscape:connector-curvature="0" sodipodi:nodetypes="cccc" class="st0" d="M-772.4,306.4
		c-10.3,2.5-20.5,2.4-30.5,0l15.9,16.5L-772.4,306.4z"/>
	<path id="path3193" inkscape:connector-curvature="0" sodipodi:nodetypes="cccc" class="st0" d="M-930.9,306.4
		c10.3,2.5,20.5,2.4,30.5,0l-15.9,16.5L-930.9,306.4z"/>
	<path id="path3181" inkscape:connector-curvature="0" sodipodi:nodetypes="ccccc" class="st0" d="M-1020.4,306.4
		c23.4,59.2,60.2,148.7,78.5,183l-27.1-8.3l-67.2-168L-1020.4,306.4z"/>
	<path id="path3175" inkscape:connector-curvature="0" sodipodi:nodetypes="cccc" class="st0" d="M-1041.7,306.4
		c7.5,2.5,13.7,2.7,21.3,0l-15.1,9.3L-1041.7,306.4z"/>
	<path id="path3177" inkscape:connector-curvature="0" sodipodi:nodetypes="cccccc" class="st0" d="M-1031,312.8l68.4,167.8
		c-4,4.4-5.9,6.7-9.8,8.7c-19.8-51.1-41.1-102.2-59.2-152.6l-8.9-15.1L-1031,312.8z"/>
	<path id="path3173" inkscape:connector-curvature="0" sodipodi:nodetypes="cccccc" class="st0" d="M-1089.8,489.3l-20.2-7.2
		l71.1-166.9l7.9-2.5v24.7C-1042,369.4-1070.1,439.5-1089.8,489.3L-1089.8,489.3z"/>
	<path id="path3167" inkscape:connector-curvature="0" sodipodi:nodetypes="ccccc" class="st0" d="M-1106.6,282l6.7,15.2l17.1-7.9
		l6.9-7.3C-1086.8,284.5-1096.7,284.6-1106.6,282L-1106.6,282z"/>
	<path id="path3165" inkscape:connector-curvature="0" sodipodi:nodetypes="ccccccc" class="st0" d="M-1154.8,415l-11.6,4.3
		l-7.3-12.8l72.6-115.9l5.2-1.8c7.2-1.6,15-3.4,20.1-6.8C-1087.4,297.6-1129.3,370.4-1154.8,415L-1154.8,415z"/>
	<path id="path3163" inkscape:connector-curvature="0" sodipodi:nodetypes="ccccccc" class="st0" d="M-1170.6,413.1l3-3l71.8-121.3
		l-10.8-6.7c-8.7,16.1-40.6,68.4-61,101.8l-9.8,18.3L-1170.6,413.1z"/>
	<path id="path3161" inkscape:connector-curvature="0" sodipodi:nodetypes="cccccc" class="st0" d="M-1228.5,282
		c15.9,28.2,40.3,67.7,61,101.8v26.2l-4.9,4.9l-71.4-126.9L-1228.5,282z"/>
	<path id="path3159" inkscape:connector-curvature="0" sodipodi:nodetypes="ccccc" class="st0" d="M-1240.3,289.7l11.8-7.7
		c-12.6,2.7-17.9,2.9-30.5,0l4.9,5.5L-1240.3,289.7z"/>
	<path id="path3157" inkscape:connector-curvature="0" sodipodi:nodetypes="cccccc" class="st0" d="M-1167.6,410.1l-5.5,7.9l-7.3-3
		c-13.6-23.5-53.7-95.3-78.7-132.9c5.1,3.7,11.9,5.7,19.8,7L-1167.6,410.1z"/>
	<path id="path3155" inkscape:connector-curvature="0" class="st0" d="M-1152.9,513.2l-20.7-9.8l1.8-86.6l4.3-6.7l12.8,4.9
		L-1152.9,513.2z"/>
	<path id="path3153" inkscape:connector-curvature="0" sodipodi:nodetypes="ccccc" class="st0" d="M-1167.6,506.5l-14.6,6.7
		l1.8-98.2l12.8-4.9V506.5z"/>
	<path id="path3171" inkscape:connector-curvature="0" sodipodi:nodetypes="cccccc" class="st0" d="M-1120,489.4
		c25.4-51.9,53.7-121.4,78.3-183l10.7,6.5l-69.5,169.9l-14.1,4.8L-1120,489.4z"/>
	<path id="path3179" inkscape:connector-curvature="0" sodipodi:nodetypes="ccccc" class="st0" d="M-963.2,480.4l21.4,9
		c-8.2-2.1-19.3-2.9-30.4,0.1l4.2-10.3L-963.2,480.4z"/>
	<path id="path3185" inkscape:connector-curvature="0" sodipodi:nodetypes="ccccccc" class="st0" d="M-1078.5,429.4l15-6.4
		c21.6,0.8,43.2,0.7,64.9,0l15.2,6.6l-14.2,3.1h-70.2L-1078.5,429.4z"/>
	<path id="path3183" inkscape:connector-curvature="0" sodipodi:nodetypes="ccccc" class="st0" d="M-1068.5,435.7l-10.1-6.3
		c31.7-0.5,63.4-0.4,95.2,0.2l-10.1,6.1C-1018.5,434.9-1043.5,435-1068.5,435.7z"/>
	<path id="path3191" inkscape:connector-curvature="0" sodipodi:nodetypes="cccccc" class="st0" d="M-900.4,489.4l-21.3-7.3V318
		l6.1-3l15.2-8.5C-903.6,367.3-903.7,428.3-900.4,489.4z"/>
	<path id="path3189" inkscape:connector-curvature="0" sodipodi:nodetypes="cccccc" class="st0" d="M-915.7,480.8v4.3l-15.2,4.3
		c2.4-60.9,2.7-121.9,0-183l15.2,8.5V480.8z"/>
	<path id="path3199" inkscape:connector-curvature="0" sodipodi:nodetypes="cccccc" class="st0" d="M-802.9,489.4l21.3-7.3V318
		l-6.1-3l-15.2-8.5C-799.8,367.3-799.7,428.3-802.9,489.4z"/>
	<path id="path3205" inkscape:connector-curvature="0" sodipodi:nodetypes="ccccccc" class="st0" d="M-915.6,397.5l12.8-5.7
		c34.1,0.9,68.2,0.8,102.3,0l12.9,5.7l-15.9,3.8h-99.3L-915.6,397.5z"/>
	<path id="path3207" inkscape:connector-curvature="0" class="st0" d="M-664.8,306.4c-59.9,0-89.8,37.4-89.8,91.9
		c0,68.2,45.2,91.8,89,91.8c52,0,89.2-29.2,89.2-91.7C-576.3,338.4-611.6,306.4-664.8,306.4L-664.8,306.4z M-666.6,315
		c0.6,0,1.1,0,1.7,0c39.6,0,68.6,26.9,68.6,83.2c0,56.2-29,83.2-68.5,83.2c-43.1,0-68.5-30.9-68.5-83
		C-733.3,339.5-702,315.8-666.6,315z"/>
	<path id="path3209" inkscape:connector-curvature="0" class="st0" d="M-665,303.9c-64.7,0-98.6,41-98.6,94.2
		c0,58.2,37.1,93.7,98.5,93.7c66.5,0,98.9-40,98.9-93.1C-566.2,339.6-604.9,303.9-665,303.9L-665,303.9z M-664.8,310
		c51.1,0,84.9,30.7,84.9,88.4c0,59.9-35.8,88-85.7,88c-42,0-85.5-22.7-85.5-88.2C-751,346-722.3,310-664.8,310L-664.8,310z"/>
	<path id="path3213" inkscape:connector-curvature="0" class="st0" d="M-441.3,297c-60.8,0-102.4,34.4-102.4,101.4
		c0,65.7,38.7,102.4,102.7,102.4c48.4,0,101.5-24.9,101.5-101.5C-339.5,316.6-397.5,297-441.3,297L-441.3,297z M-441.6,304.3
		c48.4,0,84,29.4,84,94.2c0,70.5-43.1,93.3-83.9,93.3c-43.6,0-83.4-25.6-83.4-94.7C-524.9,325.5-480.8,304.3-441.6,304.3z"/>
	<path id="path3215" inkscape:connector-curvature="0" class="st0" d="M-441.7,292.9c-64.4,0-113.7,36.6-113.7,104.6
		c0,56,32.8,105.4,114.2,105.4c68.9,0,114-37.9,114-104.4C-327.2,335.8-369.2,292.9-441.7,292.9L-441.7,292.9z M-441.3,299.8
		c42.6,0,99,19.1,99,99.5c0,74.5-51.6,98.7-98.7,98.7c-62.2,0-99.9-35.7-99.9-99.6C-540.9,333.2-500.4,299.8-441.3,299.8z"/>
	<path id="path3217" inkscape:connector-curvature="0" sodipodi:nodetypes="ccccc" class="st0" d="M-322.2,499.8
		c0-7.9,4.8-15.2,14.4-15.2c9.2,0,16.1,5.5,16.1,14.3c0,10.9-7.2,15-13.9,15C-314.8,513.9-322.2,509.1-322.2,499.8L-322.2,499.8z"/>
	<path id="path3221" inkscape:connector-curvature="0" sodipodi:nodetypes="ccccccc" class="st0" d="M-306.9,462.6
		c7.4-52.6,12-107.8,16.3-162.9c0-11,7.3-15.3,14.6-15.3c1.3,0,3.2,0.3,3.2,0.3l-2,13.2l-26.1,163.2L-306.9,462.6z"/>
	<path id="path3151" inkscape:connector-curvature="0" sodipodi:nodetypes="cccsc" class="st0" d="M-1182.2,513.2l14.7-10.7
		l14.6,10.7c0,0-8.1-1.5-14.6-1.5C-1173.4,511.7-1182.2,513.2-1182.2,513.2z"/>
	<path id="path3169" inkscape:connector-curvature="0" sodipodi:nodetypes="ccccc" class="st0" d="M-1120,489.4l20.5-8.8
		c3.1,3.7,5.9,6.9,9.7,8.8C-1097.2,487.4-1108.3,486.5-1120,489.4L-1120,489.4z"/>
	<path id="path3187" inkscape:connector-curvature="0" sodipodi:nodetypes="cccc" class="st0" d="M-930.9,489.4
		c9.9-2.4,20-2.5,30.5,0l-15.2-8.5L-930.9,489.4z"/>
	<path id="path3203" inkscape:connector-curvature="0" sodipodi:nodetypes="cccccc" class="st0" d="M-902.8,404.3l-12.8-6.8
		c42.7,0.4,85.3,0.5,128,0l-12.8,6.7C-834.6,403.8-868.7,403.8-902.8,404.3L-902.8,404.3z"/>
	<path id="path3197" inkscape:connector-curvature="0" sodipodi:nodetypes="cccccc" class="st0" d="M-787.7,480.8v4.3l15.2,4.3
		c-2.4-60.9-2.7-121.9,0-183l-15.2,8.5V480.8z"/>
	<path id="path3195" inkscape:connector-curvature="0" sodipodi:nodetypes="cccc" class="st0" d="M-772.4,489.4
		c-9.9-2.4-20-2.5-30.5,0l15.2-8.5L-772.4,489.4z"/>
	<path id="path3219" inkscape:connector-curvature="0" sodipodi:nodetypes="cccc" class="st0" d="M-300.2,456.4l-6.8,6.2
		c4.5-0.8,8,0.4,11.4,1.8L-300.2,456.4z"/>
	
		<path id="path3507" sodipodi:cx="1214.9834" sodipodi:cy="1693.0604" sodipodi:rx="22.494734" sodipodi:ry="21.289658" sodipodi:type="arc" class="st1" d="
		M-260.4,297.7c0,7.2-6.7,13-14.9,13c-8.2,0-14.9-5.8-14.9-13s6.7-13,14.9-13C-267.1,284.8-260.4,290.6-260.4,297.7z"/>
</g>
</svg>
